<svg width="21" height="26" viewBox="0 0 21 26" fill="none" xmlns="http://www.w3.org/2000/svg">
<path fill-rule="evenodd" clip-rule="evenodd" d="M14.2011 4.84612C13.3887 5.8339 12.0245 6.57473 10.9362 6.57473C10.8136 6.57473 10.6909 6.5593 10.6143 6.54386C10.599 6.48213 10.5683 6.29692 10.5683 6.11171C10.5683 4.84612 11.1968 3.61139 11.8865 2.82426C12.7602 1.79017 14.2164 1.01847 15.4273 0.972168C15.458 1.11107 15.4733 1.28085 15.4733 1.45062C15.4733 2.70078 14.9368 3.95094 14.2011 4.84612ZM8.87042 24.7898C8.32418 25.0261 7.80652 25.2499 7.10416 25.2499C5.602 25.2499 4.55969 23.8609 3.3641 22.1631C1.96924 20.1567 0.834961 17.0545 0.834961 14.122C0.834961 9.39917 3.88525 6.89885 6.88956 6.89885C7.76643 6.89885 8.56765 7.2226 9.28009 7.51047C9.85038 7.74091 10.3638 7.94836 10.8136 7.94836C11.2037 7.94836 11.6899 7.75491 12.2565 7.52943C13.048 7.21451 13.9965 6.83711 15.0594 6.83711C15.7339 6.83711 18.2017 6.89885 19.8265 9.24482C19.8172 9.25212 19.7973 9.26532 19.7684 9.28456C19.3686 9.5503 17.236 10.9678 17.236 13.875C17.236 17.4712 20.3476 18.7522 20.4549 18.7831C20.4522 18.79 20.4458 18.8098 20.4357 18.8412C20.3335 19.16 19.8458 20.6797 18.7995 22.2249C17.7725 23.7065 16.6842 25.2191 15.0594 25.2191C14.2586 25.2191 13.7484 24.9915 13.2215 24.7566C12.6592 24.5059 12.0781 24.2467 11.1048 24.2467C10.1262 24.2467 9.4805 24.526 8.87042 24.7898Z" fill="white"/>
</svg>
