<svg width="48" height="55" viewBox="0 0 48 55" fill="none" xmlns="http://www.w3.org/2000/svg">
<path d="M14.4738 0.0951063C13.1623 0.282982 11.9054 0.740379 10.7824 1.44521C9.70511 2.12133 8.76116 3.00721 8.04323 4.05775C5.14156 8.30332 5.98756 14.55 10.3605 17.5029C11.3451 18.1678 12.4726 18.6742 13.63 18.9408C14.7562 19.2 16.0694 19.2589 17.216 19.0946C18.5345 18.9057 19.7622 18.4457 20.9074 17.7671C21.904 17.1766 22.7676 16.3648 23.4725 15.4484C26.1679 11.9443 25.9454 6.65489 23.0906 3.31947C20.9849 0.859259 17.678 -0.363928 14.4738 0.0951063Z" fill="#F25267"/>
<path d="M12.6805 21.7773V29.6875C12.6805 30.8689 12.4393 32.3114 13.0337 33.3789C13.916 34.9636 15.4112 34.9609 17.0047 34.9609H20.0633H34.1961C36.0298 34.9609 38.4934 34.5394 39.9927 35.8394C41.2764 36.9525 41.1571 38.6957 41.1571 40.2344V50.1484C41.1571 50.7355 41.084 51.3768 41.2736 51.9414C41.822 53.5747 43.6302 54.4337 45.2703 53.9676C48.0331 53.1824 47.4852 50.0319 47.4852 47.8281V40.7617C47.4852 39.4828 47.6109 38.1291 47.455 36.8594C47.1983 34.7689 46.1798 32.6479 44.628 31.2089C43.1523 29.8403 41.2627 28.9091 39.2586 28.663C37.6829 28.4694 35.9946 28.6328 34.4071 28.6328H19.0086V21.7773C16.7768 22.2377 14.9123 22.2377 12.6805 21.7773ZM3.71565 25.5234C3.11088 25.6516 2.53831 25.9178 2.02815 26.2619C-0.368631 27.8781 -0.682675 31.5114 1.30817 33.5804C2.43684 34.7533 4.23895 35.2426 5.82502 34.9063C6.42979 34.7781 7.00236 34.5119 7.51252 34.1678C9.9093 32.5516 10.2234 28.9183 8.23245 26.8493C7.10382 25.6764 5.30173 25.187 3.71565 25.5234ZM6.35236 44.4531V50.043C6.35236 50.9592 6.22188 51.987 6.37604 52.8906C6.54959 53.9079 7.78801 54.3272 8.6711 53.9358C9.69393 53.4826 9.51643 52.3311 9.51643 51.4141V44.4531H31.6649V50.043C31.6649 50.9592 31.5344 51.987 31.6886 52.8906C31.8621 53.9079 33.1005 54.3272 33.9836 53.9358C35.0064 53.4827 34.8289 52.3311 34.8289 51.4141V44.4531H37.993V38.125H13.7352H6.14143C4.94356 38.125 3.51391 37.9124 2.34455 38.1808C1.2663 38.4283 0.327578 39.3671 0.0800644 40.4453C-0.043334 40.9829 0.0242397 41.5846 0.0242397 42.1328C0.0242397 42.8672 -0.0762087 43.6486 0.571116 44.1574C1.07242 44.5514 1.74721 44.4531 2.34455 44.4531H6.35236Z" fill="#F25267"/>
</svg>
