<svg width="12" height="13" viewBox="0 0 12 13" fill="none" xmlns="http://www.w3.org/2000/svg">
<path d="M10.9053 5.98417L10.6806 4.92832C10.5607 4.36496 10.4816 3.99297 10.3798 3.77529L10.3899 3.77212C10.8605 3.6207 11.1125 3.09519 10.9527 2.59836C10.7929 2.10153 10.2817 1.82151 9.81106 1.97293C9.34038 2.12435 9.08838 2.64986 9.24821 3.14669C9.32049 3.37138 9.46463 3.55173 9.64438 3.66788C9.49797 3.84816 9.3377 4.18074 9.09646 4.68132L9.09644 4.68134L9.09644 4.68134C8.91059 5.06699 8.81766 5.25982 8.66836 5.33308C8.58564 5.37367 8.493 5.3891 8.40087 5.37763C8.23458 5.35693 8.07942 5.20542 7.76908 4.9024L6.13333 3.30521C5.94188 3.11828 5.78165 2.96183 5.64305 2.83903C5.94761 2.52215 6.06981 2.03673 5.91975 1.57027C5.70664 0.907829 5.02513 0.534478 4.39756 0.736368C3.76998 0.938257 3.43399 1.63894 3.64709 2.30138C3.79715 2.76784 4.17946 3.09096 4.61164 3.17083C4.57064 3.35142 4.53169 3.57192 4.48514 3.83543L4.08745 6.08678C4.012 6.5139 3.97427 6.72746 3.85125 6.84123C3.78308 6.90427 3.69883 6.94575 3.60795 6.961C3.44394 6.98853 3.25601 6.88605 2.88016 6.6811C2.3923 6.41507 2.06816 6.23831 1.8441 6.17721C1.92241 5.97804 1.93436 5.74748 1.86208 5.52279C1.70225 5.02596 1.19112 4.74594 0.720436 4.89736C0.249754 5.04878 -0.00224264 5.57429 0.157587 6.07112C0.317416 6.56795 0.828547 6.84796 1.29923 6.69655L1.30927 6.69325C1.35348 6.92945 1.50605 7.27784 1.73711 7.80543L2.17017 8.79425C2.41055 9.34313 2.63234 9.86761 2.84758 10.3347L11.2531 7.63061C11.1557 7.12568 11.0301 6.57025 10.9053 5.98417Z" fill="url(#paint0_linear_762_3083)"/>
<path d="M7.25219 11.7303L8.48844 11.3326C10.0997 10.8143 10.9054 10.5551 11.2795 9.87432C11.4428 9.57718 11.4628 9.12975 11.4027 8.57518L3.27679 11.1893C3.55131 11.6749 3.82843 12.0267 4.13436 12.1729C4.83528 12.5078 5.64092 12.2487 7.25219 11.7303Z" fill="url(#paint1_linear_762_3083)"/>
<defs>
<linearGradient id="paint0_linear_762_3083" x1="4.39756" y1="0.736368" x2="7.87032" y2="11.5315" gradientUnits="userSpaceOnUse">
<stop stop-color="#FEE41F"/>
<stop offset="0.616189" stop-color="#F8BD22"/>
<stop offset="1" stop-color="#F5A524"/>
</linearGradient>
<linearGradient id="paint1_linear_762_3083" x1="4.39756" y1="0.736368" x2="7.87032" y2="11.5315" gradientUnits="userSpaceOnUse">
<stop stop-color="#FEE41F"/>
<stop offset="0.616189" stop-color="#F8BD22"/>
<stop offset="1" stop-color="#F5A524"/>
</linearGradient>
</defs>
</svg>
