<svg width="54" height="53" viewBox="0 0 54 53" fill="none" xmlns="http://www.w3.org/2000/svg">
<path d="M48.6211 33.4336C48.6682 39.1231 48.832 44.8267 48.832 50.5195H54L53.8945 33.4336H48.6211ZM0 34.5938L0.105469 51.6797C1.86765 51.6797 3.62475 51.7127 5.37891 51.5742C5.09099 49.296 5.27344 46.9099 5.27344 44.6133C5.27344 41.2324 5.16797 37.8688 5.16797 34.4883L0 34.5938Z" fill="#F25267"/>
<path fill-rule="evenodd" clip-rule="evenodd" d="M24.3442 1.65435C25.1937 0.61883 26.4355 0.127705 27.7383 0.0116094C28.2884 -0.0374209 28.9037 0.0742821 29.4258 0.244437C33.2323 1.48512 33.8001 7.14132 30.0586 8.89344C29.6052 9.10576 29.0836 9.29906 28.582 9.33957C27.7386 9.4077 26.9467 9.32979 26.1562 9.02618C23.226 7.90078 22.4042 4.01915 24.3442 1.65435ZM11.4961 40.99L21.7266 40.8846V24.4314V19.8963C21.7266 19.7441 21.7373 19.5725 21.7486 19.3925C21.781 18.8766 21.8177 18.2913 21.6181 17.8924C21.4619 17.5798 21.18 17.3168 20.9134 17.0681C20.8299 16.9903 20.748 16.9138 20.6719 16.8377C20.4554 16.6211 20.238 16.4054 20.0206 16.1895C19.5678 15.74 19.1149 15.2904 18.6696 14.8338C17.8282 13.9713 16.9947 13.1004 16.1611 12.2294C14.8968 10.9085 13.6324 9.58727 12.3398 8.29473C12.1799 8.13482 11.9973 7.96546 11.805 7.78718C10.7095 6.77146 9.30187 5.46636 10.0111 3.97051C10.7985 2.30948 12.6376 2.71589 13.7109 3.76111C14.6994 4.72371 15.6559 5.71702 16.6121 6.70997C17.3283 7.45372 18.0443 8.19726 18.7734 8.92754C18.9155 9.06982 19.0695 9.24652 19.2333 9.43439C19.7176 9.98992 20.287 10.6431 20.8828 10.7924C21.5605 10.9624 22.3822 10.9132 23.1585 10.8668C23.5044 10.8461 23.8412 10.826 24.1523 10.826H31.0078H33.4336C33.5215 10.826 33.6141 10.8297 33.7091 10.8334C34.0458 10.8468 34.4118 10.8613 34.6992 10.7176C35.2126 10.4609 35.6326 9.95214 36.033 9.46713C36.223 9.23695 36.4087 9.0121 36.5978 8.82207C37.556 7.85918 38.5173 6.89934 39.4787 5.93952C39.9599 5.45909 40.4411 4.97866 40.9219 4.49785C41.038 4.3817 41.1538 4.25858 41.2709 4.1339C41.6461 3.73472 42.0364 3.31952 42.5039 3.06531C43.5311 2.50677 44.9839 2.92156 45.3738 4.07598C45.9007 5.63607 44.5373 6.90037 43.4094 7.94637C43.2005 8.14013 42.9996 8.3264 42.8203 8.50567C40.6407 10.6853 38.4777 12.8953 36.3772 15.1502C35.9777 15.5791 35.5585 15.9913 35.1398 16.4031C34.9572 16.5828 34.7746 16.7623 34.5938 16.9432C34.5176 17.0193 34.4357 17.0957 34.3523 17.1736C34.0856 17.4223 33.8037 17.6853 33.6475 17.9979C33.448 18.3968 33.4847 18.9821 33.517 19.4979C33.5283 19.678 33.5391 19.8495 33.5391 20.0018V24.5369V40.7791L42.3984 40.6736V33.7127L47.5664 33.6072C47.5664 35.75 47.5928 37.8927 47.6191 40.0362C47.6455 42.1813 47.6719 44.3271 47.6719 46.4744C47.6719 47.0181 47.6983 47.56 47.7248 48.1011C47.7498 48.614 47.7748 49.1261 47.7772 49.6385C47.7775 49.6941 47.7811 49.7586 47.785 49.8281C47.8016 50.1275 47.8234 50.5198 47.6083 50.6902C47.3727 50.8769 46.8944 50.8425 46.5148 50.8152C46.3949 50.8066 46.2848 50.7986 46.1953 50.7986H42.5039C42.5039 50.1475 42.5185 49.4891 42.5331 48.828C42.5709 47.1225 42.6091 45.3985 42.3984 43.7322L33.5391 43.8377V48.6893C33.5391 48.8598 33.5455 49.0368 33.552 49.2167C33.5752 49.8617 33.5999 50.5455 33.337 51.115C32.433 53.0734 29.491 53.1662 28.5164 51.2205C28.1388 50.4665 28.1483 49.5846 28.1574 48.7492C28.1588 48.6225 28.1602 48.4968 28.1602 48.3729V43.8377H27.1055V48.5838C27.1055 48.7497 27.1103 48.9188 27.1152 49.0895C27.135 49.7789 27.1555 50.4932 26.8599 51.115C25.9265 53.0788 23.0389 53.1545 22.0245 51.2205C21.687 50.5771 21.7035 49.8536 21.7197 49.1418C21.7231 48.9902 21.7266 48.839 21.7266 48.6893V43.9432L11.6016 44.0486V51.7479H6.43359C6.43328 48.9084 6.38071 46.064 6.32814 43.2192C6.2754 40.3655 6.22266 37.5114 6.22266 34.6619H11.4961V40.99ZM27 41.5547V29.2148H28.0547V41.5547H27Z" fill="#F25267"/>
</svg>
