<svg width="14" height="14" viewBox="0 0 14 14" fill="none" xmlns="http://www.w3.org/2000/svg">
<path d="M3.84047 11.95L3.37912 10.1058C3.27164 9.67612 3.2179 9.46129 3.24104 9.27303C3.27189 9.022 3.39458 8.79439 3.58211 8.64026C3.72275 8.52466 3.92332 8.4671 4.32444 8.35197C4.72556 8.23685 4.92612 8.17928 5.10188 8.20407C5.33623 8.23712 5.54873 8.36853 5.69263 8.5694C5.80055 8.72005 5.91196 9.16541 6.01944 9.59506L10.001 8.45231C9.89354 8.02265 9.78213 7.5773 9.80527 7.38903C9.83613 7.13801 9.95881 6.91039 10.1463 6.75626C10.287 6.64066 10.4875 6.5831 10.8887 6.46797C11.2898 6.35285 11.4904 6.29529 11.6661 6.32007C11.9005 6.35312 12.113 6.48453 12.2569 6.6854C12.3648 6.83605 12.4185 7.05088 12.526 7.48053L12.9873 9.32478C13.0948 9.75443 13.1486 9.96926 13.1254 10.1575C13.0946 10.4085 12.9719 10.6362 12.7844 10.7903C12.6437 10.9059 12.4432 10.9635 12.042 11.0786L12.042 11.0786L12.042 11.0786C11.6409 11.1937 11.4403 11.2513 11.2646 11.2265C11.0302 11.1934 10.8177 11.062 10.6738 10.8612C10.5659 10.7105 10.4545 10.2651 10.347 9.83549L6.36545 10.9782C6.47293 11.4079 6.58434 11.8533 6.5612 12.0415C6.53034 12.2925 6.40766 12.5202 6.22013 12.6743C6.07948 12.7899 5.87892 12.8475 5.47781 12.9626L5.4778 12.9626L5.47779 12.9626C5.07668 13.0777 4.87612 13.1353 4.70035 13.1105C4.466 13.0774 4.2535 12.946 4.10961 12.7452C4.00169 12.5945 3.94795 12.3797 3.84047 11.95Z" fill="#17C964"/>
<path d="M9.56287 4.62016L9.7925 2.72677L9.79251 2.72675C9.846 2.28566 9.87275 2.06511 9.82658 1.88178C9.76501 1.63733 9.6153 1.42909 9.41039 1.30287C9.25671 1.20821 9.05081 1.17956 8.639 1.12225C8.22719 1.06495 8.02128 1.03629 7.85012 1.08576C7.6219 1.1517 7.42749 1.31206 7.30966 1.53154C7.22128 1.69616 7.16583 2.15338 7.11233 2.59449L3.02464 2.02568C3.07814 1.58457 3.13359 1.12734 3.08741 0.944008C3.02584 0.699559 2.87614 0.49132 2.67123 0.365101C2.51755 0.270436 2.31164 0.241784 1.89983 0.18448C1.48802 0.127175 1.28212 0.0985229 1.11096 0.147984C0.882741 0.213933 0.688331 0.374288 0.570494 0.593772C0.482117 0.758386 0.455367 0.978938 0.401868 1.42004L0.172231 3.31343C0.118732 3.75454 0.0919823 3.97509 0.138159 4.15843C0.199728 4.40287 0.349434 4.61111 0.554342 4.73733C0.708022 4.832 0.913926 4.86065 1.32573 4.91795L1.32574 4.91795L1.32575 4.91795C1.73755 4.97526 1.94346 5.00391 2.11462 4.95445C2.34283 4.8885 2.53724 4.72815 2.65508 4.50866C2.74346 4.34405 2.79891 3.88682 2.85241 3.44572L6.9401 4.01453C6.8866 4.45563 6.83115 4.91286 6.87732 5.0962C6.93889 5.34065 7.0886 5.54889 7.29351 5.6751C7.44719 5.76977 7.65309 5.79842 8.06489 5.85572L8.0649 5.85573L8.06491 5.85573C8.47672 5.91303 8.68262 5.94168 8.85378 5.89222C9.082 5.82627 9.27641 5.66592 9.39424 5.44643C9.48262 5.28182 9.50937 5.06127 9.56286 4.62018L9.56287 4.62016Z" fill="#17C964"/>
</svg>
