<svg width="10" height="13" viewBox="0 0 10 13" fill="none" xmlns="http://www.w3.org/2000/svg">
<path d="M3.45899 11.8359L1.46139 10.8222C0.99601 10.586 0.763318 10.4679 0.615692 10.3005C0.418857 10.0773 0.31629 9.78866 0.330556 9.49818C0.341256 9.28031 0.451205 9.05304 0.671101 8.59849C0.890997 8.14393 1.00094 7.91666 1.1637 7.77597C1.38071 7.58837 1.66703 7.49714 1.95966 7.52232C2.17914 7.54122 2.66153 7.78603 3.12691 8.02221L5.30963 3.51027C4.84425 3.27409 4.36186 3.02927 4.21423 2.86186C4.0174 2.63865 3.91483 2.35005 3.9291 2.05957C3.9398 1.84171 4.04974 1.61443 4.26964 1.15988C4.48954 0.705327 4.59948 0.478051 4.76224 0.337357C4.97925 0.149764 5.26557 0.058527 5.5582 0.083716C5.77768 0.102608 6.01037 0.220698 6.47575 0.456879L8.47335 1.47066C8.93874 1.70684 9.17143 1.82493 9.31905 1.99234C9.51589 2.21555 9.61846 2.50415 9.60419 2.79463C9.59349 3.01249 9.48354 3.23977 9.26365 3.69432C9.04375 4.14887 8.9338 4.37615 8.77104 4.51684C8.55403 4.70444 8.26772 4.79567 7.97508 4.77048C7.75561 4.75159 7.27322 4.50678 6.80783 4.2706L4.62511 8.78254C5.0905 9.01872 5.57289 9.26353 5.72051 9.43095C5.91735 9.65416 6.01992 9.94275 6.00565 10.2332C5.99495 10.4511 5.885 10.6784 5.66511 11.1329C5.44521 11.5875 5.33526 11.8148 5.1725 11.9555C4.95549 12.143 4.66918 12.2343 4.37654 12.2091C4.15707 12.1902 3.92438 12.0721 3.45899 11.8359Z" fill="#549EF2"/>
</svg>
