<svg width="29" height="27" viewBox="0 0 29 27" fill="none" xmlns="http://www.w3.org/2000/svg">
<mask id="mask0_416_8059" style="mask-type:luminance" maskUnits="userSpaceOnUse" x="0" y="0" width="29" height="27">
<path d="M28.9079 0H0.788086V27H28.9079V0Z" fill="white"/>
</mask>
<g mask="url(#mask0_416_8059)">
<path d="M28.3452 13.8068C28.3452 12.8495 28.2557 11.9291 28.0896 11.0454H14.8477V16.2675H22.4144C22.0885 17.955 21.098 19.3848 19.6089 20.342V23.7293H24.1528C26.8114 21.3791 28.3452 17.9181 28.3452 13.8068Z" fill="#4285F4"/>
<path d="M14.8477 26.9999C18.6439 26.9999 21.8265 25.791 24.1527 23.7293L19.6088 20.342C18.3499 21.152 16.7393 21.6306 14.8477 21.6306C11.1857 21.6306 8.08615 19.2558 6.98048 16.0649H2.2832V19.5627C4.59676 23.9747 9.35154 26.9999 14.8477 26.9999Z" fill="#34A853"/>
<path d="M6.98077 16.0652C6.69957 15.2552 6.53985 14.39 6.53985 13.5002C6.53985 12.6104 6.69957 11.7452 6.98077 10.9352V7.4375H2.2835C1.33136 9.26 0.788086 11.3219 0.788086 13.5002C0.788086 15.6786 1.33136 17.7404 2.2835 19.5629L6.98077 16.0652Z" fill="#FBBC04"/>
<path d="M14.8477 5.36935C16.9118 5.36935 18.7652 6.05043 20.2224 7.38815L24.255 3.51607C21.8201 1.33771 18.6374 0 14.8477 0C9.35154 0 4.59676 3.02522 2.2832 7.43728L6.98048 10.935C8.08615 7.74414 11.1857 5.36935 14.8477 5.36935Z" fill="#E94235"/>
</g>
</svg>
