<svg width="54" height="54" viewBox="0 0 54 54" fill="none" xmlns="http://www.w3.org/2000/svg">
<path d="M25.9451 0.0536598C22.9891 0.680701 21.4145 4.20089 22.8155 6.85452C23.8528 8.81915 26.0403 9.67226 28.1599 9.20983C31.0861 8.57143 32.4969 5.14742 31.2205 2.5303C30.2777 0.597109 28.0279 -0.388165 25.9451 0.0536598ZM3.6912 8.33108L1.37089 8.33117C0.989349 8.33315 0.566323 8.32671 0.271114 8.61087C-0.13094 8.99788 -0.000207381 9.72552 -0.000207381 10.2295V14.1319C-0.000207381 14.6395 -0.0999622 15.291 0.340287 15.6544C0.678369 15.9335 1.16872 15.9227 1.58182 15.9247L3.6912 15.9248C3.6912 16.4167 3.59749 17.0585 3.97099 17.4464C4.18045 17.6641 4.45839 17.7047 4.74589 17.7158C5.41716 17.7417 6.82229 17.9713 7.27615 17.3651C7.55402 16.994 7.48804 16.4657 7.48807 16.0303V13.0772H11.074V19.5108C11.074 20.6448 10.9392 21.9709 11.5342 22.9911C12.2924 24.2911 14.0473 24.5612 15.2928 23.8476C16.0927 23.3893 16.6096 22.5415 17.1689 21.8311C17.8321 20.9888 18.4841 20.1376 19.1529 19.2998C19.5781 18.7674 20.0771 18.2366 20.3553 17.6123C20.631 18.5449 20.4607 19.7011 20.4607 20.6709V26.6826V46.4053V50.5186C20.4607 51.2001 20.3538 51.9835 20.6171 52.628C21.16 53.956 22.9912 54.4517 24.1517 53.6154C25.4246 52.6979 25.2068 51.1551 25.2068 49.7803V40.0772C25.2068 38.5984 24.7049 35.7946 26.7889 35.4728C27.6212 35.3444 28.467 36.039 28.708 36.8076C28.9829 37.6847 28.7928 38.8479 28.7928 39.7608V50.2022C28.7928 51.6215 28.7526 53.3111 30.3748 53.8967C31.5938 54.3369 33.0901 53.6818 33.4556 52.417C33.6534 51.7326 33.5389 50.9085 33.5389 50.2022V46.0889V17.6123C34.3615 18.7222 35.2397 19.7947 36.0923 20.8819C36.6989 21.6555 37.2836 22.4548 37.9279 23.198C39.2295 24.6992 41.9264 24.5924 42.6799 22.5694C43.0691 21.5243 42.9256 20.287 42.9256 19.1944V13.0772H46.5115V16.0303C46.5115 16.4657 46.4456 16.994 46.7234 17.3651C47.1773 17.9713 48.5824 17.7417 49.2537 17.7158C49.544 17.7046 49.8223 17.6613 50.037 17.4464C50.4175 17.0659 50.3084 16.4144 50.3084 15.9248L52.4178 15.9247C52.8354 15.9227 53.3228 15.9302 53.6678 15.6544C54.1146 15.2971 53.9998 14.6386 53.9998 14.1319V10.1241C53.9998 9.64229 54.1125 8.9806 53.7284 8.61087C53.4332 8.32671 53.0103 8.33315 52.6287 8.33117L50.3084 8.33108C50.3084 7.84363 50.4224 7.17642 50.0517 6.79324C49.5206 6.24427 48.043 6.32084 47.3554 6.48888C47.1037 6.55036 46.8539 6.66528 46.6952 6.8782C46.4412 7.21929 46.5115 7.72078 46.5115 8.12015V11.0733C45.2936 11.0733 43.7783 10.8331 42.6092 11.1787C41.9326 9.90237 40.0162 9.90237 39.3396 11.1787C37.7408 10.7981 35.8129 11.0733 34.1717 11.0733H24.0467H17.9295C16.8689 11.0733 15.6955 10.9322 14.6599 11.1787C13.9834 9.90237 12.067 9.90237 11.3904 11.1787C10.2213 10.8331 8.70606 11.0733 7.48807 11.0733V8.12015C7.48805 7.72079 7.55837 7.21929 7.30432 6.8782C7.14572 6.66528 6.89586 6.55036 6.64424 6.48888C5.95653 6.32084 4.47893 6.24427 3.94787 6.79324C3.5772 7.17642 3.6912 7.84363 3.6912 8.33108Z" fill="#F25267"/>
</svg>
